<?xml version="1.0" encoding="UTF-8" standalone="no"?>
<svg
   xmlns:dc="http://purl.org/dc/elements/1.1/"
   xmlns:cc="http://creativecommons.org/ns#"
   xmlns:rdf="http://www.w3.org/1999/02/22-rdf-syntax-ns#"
   xmlns:svg="http://www.w3.org/2000/svg"
   xmlns="http://www.w3.org/2000/svg"
   xmlns:sodipodi="http://sodipodi.sourceforge.net/DTD/sodipodi-0.dtd"
   xmlns:inkscape="http://www.inkscape.org/namespaces/inkscape"
   id="Ebene_1"
   data-name="Ebene 1"
   viewBox="0 0 350 350"
   version="1.1"
   sodipodi:docname="logo_square.svg"
   width="350"
   height="350"
   inkscape:version="0.92.4 (33fec40, 2019-01-16)"
   inkscape:export-filename="/home/jarno/projects/django-disbi/docs/source/_static/images/logo_square.png"
   inkscape:export-xdpi="96"
   inkscape:export-ydpi="96">
  <metadata
     id="metadata869">
    <rdf:RDF>
      <cc:Work
         rdf:about="">
        <dc:format>image/svg+xml</dc:format>
        <dc:type
           rdf:resource="http://purl.org/dc/dcmitype/StillImage" />
        <dc:title>DSBi5</dc:title>
      </cc:Work>
    </rdf:RDF>
  </metadata>
  <sodipodi:namedview
     pagecolor="#ffffff"
     bordercolor="#666666"
     borderopacity="1"
     objecttolerance="10"
     gridtolerance="10"
     guidetolerance="10"
     inkscape:pageopacity="0"
     inkscape:pageshadow="2"
     inkscape:window-width="1920"
     inkscape:window-height="1163"
     id="namedview867"
     showgrid="false"
     showborder="true"
     inkscape:showpageshadow="false"
     inkscape:zoom="1.4014286"
     inkscape:cx="-29.537064"
     inkscape:cy="220.21337"
     inkscape:window-x="0"
     inkscape:window-y="0"
     inkscape:window-maximized="1"
     inkscape:current-layer="Ebene_1" />
  <defs
     id="defs836">
    <style
       id="style834">.cls-1{fill:#fefefe;}.cls-2{fill:#9a9a9a;}.cls-3{fill:#679190;}.cls-4{fill:#679090;}</style>
  </defs>
  <title
     id="title838">DSBi5</title>
  <g
     id="g4625"
     transform="matrix(0.98391067,0,0,0.98391067,2.8156321,-10.576958)">
    <path
       style="fill:#679190"
       inkscape:connector-curvature="0"
       id="path844"
       d="m 7.30185,61.23096 a 32.56,32.56 0 0 1 1.34,-6.16 21.21,21.21 0 0 1 40.05,0.82 c 0.29,0.89 0.71,1 1.53,1 h 114.45 a 1.59,1.59 0 0 0 1.7,-0.9 21.21,21.21 0 0 1 39.36,6.29 c 2.33,12.27 -6.45,24.11 -18.64,25.13 -10.52,0.88 -19.3,-4.94 -22.52,-15 a 21.57,21.57 0 0 1 -0.76,-3.74 c -0.08,-0.61 -0.31,-0.75 -0.83,-0.71 -0.24,0 -0.48,0 -0.72,0 q -55.85,0 -111.69,0 a 1.73,1.73 0 0 0 -2,1.41 21.19,21.19 0 0 1 -35,8.06 20.39,20.39 0 0 1 -6.09,-13 3.87,3.87 0 0 0 -0.15,-0.56 z"
       class="cls-3" />
    <path
       style="fill:#679090"
       inkscape:connector-curvature="0"
       id="path854"
       d="m 321.43185,150.09096 a 20.78,20.78 0 0 1 -20,-14.33 1.54,1.54 0 0 0 -1.74,-1.27 q -96,0 -192.09,0 a 1.8,1.8 0 0 0 -2.07,1.51 21.2,21.2 0 1 1 -23.26,-28 21,21 0 0 1 18.24,5.83 19.12,19.12 0 0 1 5.19,8.48 c 0.24,0.86 0.65,1.06 1.5,1.06 q 96.35,0 192.68,0 c 1,0 1.25,-0.38 1.52,-1.2 a 21.2,21.2 0 1 1 21.95,27.87 c -0.63,0.09 -1.29,0.05 -1.92,0.05 z"
       class="cls-4" />
    <path
       style="fill:#679190"
       inkscape:connector-curvature="0"
       id="path858"
       d="m 263.29185,212.75096 a 20.9,20.9 0 0 1 -20.1,-14.4 1.41,1.41 0 0 0 -1.59,-1.15 q -77.88,0 -155.75,0 a 1.34,1.34 0 0 0 -1.55,1 c -3.13,8.58 -9.23,13.52 -18.35,14.41 -12.55,1.22 -22.1,-8.63 -22.91,-19.27 a 21.21,21.21 0 0 1 41.26,-8.51 1.42,1.42 0 0 0 1.63,1.21 q 77.76,0 155.51,0 a 1.52,1.52 0 0 0 1.74,-1.25 21.19,21.19 0 1 1 20.11,27.95 z"
       class="cls-3" />
  </g>
  <g
     id="g4611"
     transform="matrix(1.3115757,0,0,1.3115757,-47.678811,-115.41193)">
    <path
       style="fill:#9a9a9a;stroke-width:0.37124676"
       id="path10"
       d="m 172.26889,341.16426 a 10.974054,10.974054 0 0 0 -1.8563,-0.14108 38.520563,38.520563 0 0 1 -12.9231,-3.34122 26.971077,26.971077 0 0 1 -7.2615,-4.8262 c -0.6646,-0.61627 -1.2511,-1.29937 -1.8897,-1.94163 -0.2413,-0.24131 -0.2339,-0.4195 0.045,-0.67566 1.949,-1.79684 3.8795,-3.61595 5.8174,-5.42392 1.0284,-0.95782 2.0753,-1.90078 3.0962,-2.86974 0.2005,-0.18933 0.2896,-0.15592 0.4381,0.0408 3.2707,4.27676 7.6996,6.68244 12.8934,7.62912 3.7124,0.69423 7.3989,0.34897 10.8292,-1.39217 a 10.212998,10.212998 0 0 0 5.1195,-5.56871 10.023662,10.023662 0 0 0 0.5755,-3.17787 9.8194766,9.8194766 0 0 0 -0.4604,-3.62708 c -0.6051,-1.80055 -1.8562,-3.12961 -3.3041,-4.2582 -2.2275,-1.69288 -4.7631,-2.6804 -7.3655,-3.56397 -3.3412,-1.11374 -6.6825,-2.12724 -9.968,-3.38206 -2.4279,-0.92811 -4.8039,-1.96018 -6.9126,-3.52313 -4.0429,-2.99967 -6.6824,-6.88291 -7.4918,-11.90959 a 25.285616,25.285616 0 0 1 -0.323,-4.82621 c 0.085,-3.07021 0.6423,-6.03647 2.1236,-8.76513 a 20.930892,20.930892 0 0 1 7.4249,-7.85558 c 3.5231,-2.20521 7.3915,-3.43404 11.4604,-4.11713 a 36.322782,36.322782 0 0 1 8.1971,-0.42693 35.105093,35.105093 0 0 1 11.776,2.82518 28.28529,28.28529 0 0 1 7.4249,4.72969 c 0.3713,0.30813 0.2859,0.48633 0.026,0.76848 -0.7685,0.82045 -1.5295,1.65576 -2.2869,2.48735 q -2.6989,2.96998 -5.3942,5.90654 c -0.1856,0.20789 -0.3712,0.54202 -0.5829,0.57172 -0.2116,0.0297 -0.3712,-0.37125 -0.5717,-0.55687 a 17.790144,17.790144 0 0 0 -11.0223,-5.59469 c -3.6902,-0.47149 -7.2541,0.0668 -10.5026,1.99731 -2.3574,1.40331 -3.95,3.40062 -4.4883,6.16269 -0.7425,3.82384 0.8575,7.37667 4.2099,9.42967 2.2869,1.3996 4.8002,2.22748 7.3321,3.02937 3.9427,1.23625 7.8853,2.48364 11.6683,4.16539 a 23.017299,23.017299 0 0 1 7.6328,5.28284 c 2.5988,2.81776 4.2582,6.09587 4.6703,9.96055 a 26.414206,26.414206 0 0 1 -0.9541,10.89238 20.689582,20.689582 0 0 1 -3.9055,7.03512 c -3.538,4.23593 -8.1674,6.61191 -13.4577,7.87044 a 32.506366,32.506366 0 0 1 -7.0277,0.92069 0.32298467,0.32298467 0 0 0 -0.2524,0.0631 z"
       class="cls-2"
       inkscape:connector-curvature="0" />
    <path
       style="fill:#9a9a9a;stroke-width:0.37124676"
       id="path14"
       d="m 295.58219,272.55786 a 9.9197132,9.9197132 0 0 1 -0.5235,2.1421 7.3543982,7.3543982 0 0 1 -4.3955,4.14682 c -2.4205,0.88357 -4.8782,0.89471 -7.1911,-0.33412 -3.783,-2.00473 -5.1083,-6.3112 -3.2966,-9.916 1.3921,-2.75836 3.7421,-4.18766 6.8754,-4.26563 a 8.6129247,8.6129247 0 0 1 4.3102,0.84645 c 2.3983,1.25852 3.9315,3.13703 4.1654,5.93994 a 0.42693377,0.42693377 0 0 0 0.056,0.1188 z"
       class="cls-2"
       inkscape:connector-curvature="0" />
    <path
       style="fill:#9a9a9a;stroke-width:0.37124676"
       id="path16"
       d="m 213.78909,302.14251 v -36.52696 c 0,-0.66453 -0.089,-0.60514 0.5829,-0.60514 9.6078,0 19.2157,-0.052 28.8199,0.0223 4.0614,0.0297 8.0597,0.65711 11.8093,2.3537 4.5292,2.04929 7.7962,5.31997 9.5411,10.02367 a 15.358478,15.358478 0 0 1 0.8427,3.9909 20.418571,20.418571 0 0 1 -0.4641,7.05369 c -0.7944,3.0665 -2.5244,5.52415 -4.9079,7.55487 a 20.474258,20.474258 0 0 1 -7.0536,3.85725 c -0.1077,0.0334 -0.3156,0 -0.2896,0.19676 0.026,0.19676 0.1893,0.10395 0.297,0.12251 a 21.053403,21.053403 0 0 1 6.9794,2.26832 c 3.7125,2.06042 6.482,4.95243 7.7962,9.06956 a 18.29504,18.29504 0 0 1 0.865,5.27913 25.022031,25.022031 0 0 1 -0.787,7.30984 17.727032,17.727032 0 0 1 -3.7125,6.80124 c -2.944,3.42661 -6.7604,5.42392 -11.0149,6.68245 a 41.278926,41.278926 0 0 1 -8.0672,1.45157 c -1.8562,0.17077 -3.7125,0.23389 -5.591,0.23389 q -12.5407,0 -25.0777,0 c -0.6385,0 -0.5606,0.0743 -0.5606,-0.57915 z m 13.2758,15.17286 v 2.59872 c 0,2.59873 0,5.16405 0,7.74792 0,0.34898 0.085,0.48262 0.4455,0.44921 0.3601,-0.0334 0.6497,0 0.9764,0 4.893,-0.0928 9.7935,0.21161 14.6828,-0.20047 a 18.30989,18.30989 0 0 0 6.5451,-1.66319 c 2.3054,-1.11374 4.1134,-2.75094 5.0526,-5.19745 0.7017,-1.82654 0.7425,-3.71247 0.5495,-5.65038 -0.3713,-3.5454 -2.1495,-6.00677 -5.5167,-7.28386 a 25.330166,25.330166 0 0 0 -8.7503,-1.48499 c -4.4995,-0.0557 -8.9991,0 -13.4949,-0.0223 -0.3712,0 -0.4937,0.0891 -0.4937,0.48633 0.011,3.3932 0,6.80496 0,10.22043 z m 0,-31.71561 q 0,4.60717 0,9.21806 c 0,0.25244 0,0.44921 0.3712,0.44178 4.6406,-0.0743 9.2812,0.15221 13.9218,-0.16335 a 15.321353,15.321353 0 0 0 5.5687,-1.37361 c 2.1532,-1.01722 3.8053,-2.53933 4.6963,-4.80022 a 11.092853,11.092853 0 0 0 0.6088,-4.23593 c -0.022,-3.60852 -1.8302,-6.18868 -5.1974,-7.42493 a 23.388545,23.388545 0 0 0 -7.8556,-1.25853 c -3.8758,-0.0334 -7.7517,0 -11.6238,-0.0186 -0.3712,0 -0.4752,0.0965 -0.4714,0.46777 -0.011,3.05907 -0.019,6.1033 -0.019,9.14752 z"
       class="cls-2"
       inkscape:connector-curvature="0" />
    <path
       style="fill:#9a9a9a;stroke-width:0.37124676"
       id="path18"
       d="m 43.988286,321.37681 c 0,-5.61326 -0.026,-11.22651 0,-16.83604 0.074,-12.99364 0,-25.95386 0.026,-38.92894 0,-0.43435 0.089,-0.57543 0.5568,-0.57543 8.9545,0.0186 17.9053,-0.0186 26.8597,0.026 a 54.810871,54.810871 0 0 1 14.0666,2.01587 36.927914,36.927914 0 0 1 13.8178,6.998 32.439541,32.439541 0 0 1 7.424904,8.78741 32.105419,32.105419 0 0 1 4.0837,11.80936 c 0.2451,1.64091 0.3713,3.28925 0.4678,4.94872 0.074,1.39217 0.085,2.78806 0.041,4.18023 -0.1596,4.72598 -0.9504,9.33315 -2.9328,13.67302 a 35.067968,35.067968 0 0 1 -5.9659,9.05471 35.795612,35.795612 0 0 1 -9.652504,7.40637 c -4.1876,2.2609 -8.676,3.63451 -13.3389,4.48838 a 51.094691,51.094691 0 0 1 -8.0709,0.81674 c -4.5255,0.10395 -9.051,0.026 -13.5765,0.0483 -4.4252,0 -8.8505,0 -13.2757,0 -0.401,0 -0.5198,-0.0891 -0.5198,-0.50861 0,-5.79516 -0.011,-11.59775 -0.011,-17.40404 z m 13.2758,-19.3531 v 2.27203 q 0,11.42698 0,22.85395 c 0,0.42694 0.074,0.58657 0.5494,0.57544 1.5295,-0.0371 3.0591,0 4.5886,0 2.7584,-0.0408 5.5167,0.078 8.2751,-0.0743 a 42.83445,42.83445 0 0 0 8.0672,-1.19542 c 4.8262,-1.19913 9.1067,-3.36349 12.4925,-7.09081 a 21.903558,21.903558 0 0 0 4.5143,-7.54002 c 1.0209,-2.91058 1.3216,-5.93995 1.407,-8.9916 0.022,-0.74249 -0.018,-1.50355 -0.063,-2.25718 -0.059,-1.02092 -0.071,-2.04185 -0.1893,-3.05907 a 23.507344,23.507344 0 0 0 -2.7435,-9.03243 21.4395,21.4395 0 0 0 -4.3436,-5.54272 23.325433,23.325433 0 0 0 -9.723,-5.1232 46.442969,46.442969 0 0 0 -11.375,-1.41816 c -3.6382,-0.0445 -7.2764,0 -10.9146,-0.0223 -0.4567,0 -0.5606,0.1188 -0.5569,0.5643 q 0.026,12.52957 0.015,25.08142 z"
       class="cls-2"
       inkscape:connector-curvature="0" />
    <path
       style="fill:#9a9a9a;stroke-width:0.37124676"
       id="path20"
       d="m 137.34199,302.18335 v 36.52697 c 0,0.66824 0.082,0.58285 -0.6014,0.58285 q -6.0773,0 -12.1584,0 c -0.3712,0 -0.5271,-0.0631 -0.5271,-0.49747 q 0,-36.6569 0,-73.31751 c 0,-0.40095 0.115,-0.48634 0.5011,-0.48634 q 6.1405,0.0223 12.292,0 c 0.4307,0 0.5012,0.14108 0.5012,0.52717 q -0.011,18.33588 -0.01,36.66433 z"
       class="cls-2"
       inkscape:connector-curvature="0" />
    <path
       style="fill:#9a9a9a;stroke-width:0.37124676"
       id="path24"
       d="m 293.80019,314.10779 q 0,12.33653 0,24.67306 c 0,0.37125 -0.071,0.52346 -0.5012,0.52346 q -5.8285,-0.0297 -11.6683,0 c -0.3712,0 -0.4751,-0.0854 -0.4751,-0.46406 0,-11.62373 0,-23.24747 0.022,-34.8712 0,-4.82621 0,-9.6784 0,-14.51575 0,-0.44921 0.1411,-0.53088 0.5532,-0.53088 q 5.7692,0.0223 11.5346,0 c 0.4084,0 0.5198,0.10395 0.5198,0.51603 q 0,12.33281 0.015,24.66934 z"
       class="cls-2"
       inkscape:connector-curvature="0" />
    <path
       style="fill:#fefefe;stroke-width:0.37124676"
       id="path28"
       d="m 227.06489,317.31537 c 0,-3.41547 0,-6.82723 0,-10.2427 0,-0.39724 0.1039,-0.49005 0.4938,-0.48633 4.4958,0 8.9953,-0.0334 13.4948,0.0223 a 25.330166,25.330166 0 0 1 8.7503,1.48499 c 3.3672,1.27709 5.1529,3.73845 5.5167,7.28386 0.2005,1.91934 0.1522,3.82384 -0.5495,5.65037 -0.9392,2.44281 -2.7472,4.08372 -5.0526,5.19746 a 18.30989,18.30989 0 0 1 -6.5451,1.66318 c -4.8893,0.41209 -9.7898,0.10767 -14.6828,0.20048 -0.3267,0 -0.6534,-0.0223 -0.9764,0 -0.323,0.0223 -0.4492,-0.10024 -0.4455,-0.44921 0,-2.59873 0,-5.16404 0,-7.74792 z"
       class="cls-1"
       inkscape:connector-curvature="0" />
    <path
       style="fill:#fefefe;stroke-width:0.37124676"
       id="path30"
       d="m 227.06489,285.59976 c 0,-3.04422 0,-6.08845 0,-9.13267 0,-0.37125 0.1039,-0.46777 0.4715,-0.46777 3.8721,0 7.7479,0 11.6237,0.0186 a 23.388545,23.388545 0 0 1 7.8556,1.25853 c 3.3821,1.2214 5.1975,3.80156 5.1975,7.42493 a 11.092853,11.092853 0 0 1 -0.6089,4.23593 c -0.891,2.26089 -2.543,3.783 -4.6963,4.80022 a 15.321353,15.321353 0 0 1 -5.5687,1.37361 c -4.6368,0.31556 -9.2811,0.0891 -13.9217,0.16335 -0.3713,0 -0.3713,-0.18934 -0.3713,-0.44178 q 0.022,-4.61831 0.019,-9.23291 z"
       class="cls-1"
       inkscape:connector-curvature="0" />
    <path
       style="fill:#fefefe;stroke-width:0.37124676"
       id="path32"
       d="m 57.264086,302.02371 q 0,-12.54071 0,-25.08142 c 0,-0.4455 0.1002,-0.56801 0.5568,-0.5643 3.6382,0 7.2765,-0.0223 10.9147,0.0223 a 46.442969,46.442969 0 0 1 11.3601,1.41816 23.325433,23.325433 0 0 1 9.7081,5.10464 21.4395,21.4395 0 0 1 4.3436,5.54271 23.507344,23.507344 0 0 1 2.7435,9.03244 c 0.1188,1.01721 0.13,2.03814 0.1894,3.05907 0.044,0.74249 0.085,1.48498 0.063,2.25718 -0.085,3.05536 -0.3713,6.08102 -1.407,8.99159 a 21.903558,21.903558 0 0 1 -4.5033,7.54003 c -3.3857,3.71246 -7.6736,5.89168 -12.4924,7.09081 a 42.83445,42.83445 0 0 1 -8.0672,1.19541 c -2.7584,0.15221 -5.5167,0.0334 -8.2751,0.0743 -1.5295,0.0223 -3.0591,0 -4.5886,0 -0.4752,0 -0.5495,-0.1485 -0.5495,-0.57543 q 0,-11.42697 0,-22.85395 z"
       class="cls-1"
       inkscape:connector-curvature="0" />
  </g>
</svg>
