<svg id="Ebene_1" data-name="Ebene 1" xmlns="http://www.w3.org/2000/svg" viewBox="0 0 1075.25 210.31"><defs><style>.cls-1{fill:#fefefe;}.cls-2{fill:#9a9a9a;}.cls-3{fill:#679190;}.cls-4{fill:#679090;}</style></defs><title>DSBi5</title><path class="cls-1" d="M372.24,476.4q0-15.78,0-31.56c0-.72.14-1,.86-.84h.24q536.52,0,1073,0c.9,0,1.11.2,1.1,1.1,0,6.92,0,13.84,0,20.76a1.15,1.15,0,0,1-.15-.32c-.63-7.51-4.76-12.57-11.22-16a23.2,23.2,0,0,0-11.61-2.28c-8.44.21-14.77,4.06-18.52,11.49-4.88,9.68-1.31,21.31,8.88,26.71,6.23,3.31,12.85,3.28,19.37.9A19.81,19.81,0,0,0,1446,475.21a26.72,26.72,0,0,0,1.41-5.77q0,91.86,0,183.72c0,.9-.2,1.1-1.1,1.1q-162.06,0-324.12,0a.87.87,0,0,1,.68-.17,87.56,87.56,0,0,0,18.93-2.48c14.23-3.39,26.72-9.79,36.25-21.2a55.73,55.73,0,0,0,10.52-18.95,71.15,71.15,0,0,0,2.57-29.34c-1.11-10.41-5.54-19.24-12.58-26.83A62,62,0,0,0,1158.05,541c-10.19-4.53-20.81-7.89-31.43-11.22-6.82-2.14-13.59-4.39-19.75-8.16-9-5.53-13.34-15.1-11.34-25.4,1.45-7.44,5.74-12.82,12.09-16.6,8.75-5.2,18.35-6.65,28.29-5.38a47.92,47.92,0,0,1,29.69,15.07c.51.54.88,1.59,1.54,1.5s1.07-1,1.57-1.54q7.27-7.95,14.53-15.91c2-2.24,4.09-4.49,6.16-6.7.7-.76.88-1.24-.07-2.07a76.19,76.19,0,0,0-20-12.74,94.56,94.56,0,0,0-31.72-7.61,97.84,97.84,0,0,0-22.08,1.15c-11,1.84-21.38,5.15-30.87,11.09a56.38,56.38,0,0,0-20,21.16c-4,7.35-5.49,15.34-5.72,23.61a68.11,68.11,0,0,0,.87,13c2.21,13.54,9.29,24,20.18,32.08,5.68,4.21,12.08,7,18.62,9.49,8.83,3.38,17.9,6.08,26.85,9.11,7,2.38,13.89,5,19.84,9.6,4,3,7.27,6.62,8.9,11.47a26.45,26.45,0,0,1,1.24,9.77,27,27,0,0,1-1.55,8.56,27.51,27.51,0,0,1-13.79,15c-9.24,4.69-19.16,5.62-29.17,3.75-14-2.6-25.92-9-34.73-20.55-.4-.53-.64-.62-1.18-.11-2.75,2.61-5.57,5.15-8.34,7.73-5.22,4.87-10.42,9.77-15.67,14.61-.75.69-.77,1.17-.12,1.82,1.72,1.73,3.3,3.57,5.09,5.23a72.65,72.65,0,0,0,19.56,13,103.76,103.76,0,0,0,34.81,9,29.56,29.56,0,0,1,5,.38q-370.93,0-741.86,0c-1.08,0-1.2-.3-1.2-1.25q0-87,0-174a3.87,3.87,0,0,1,.15.56,20.39,20.39,0,0,0,6.09,13,21.19,21.19,0,0,0,35-8.06,1.73,1.73,0,0,1,2-1.41q55.85,0,111.69,0c.24,0,.48,0,.72,0,.52,0,.75.1.83.71a21.57,21.57,0,0,0,.76,3.74c3.22,10,12,15.84,22.52,15,12.19-1,21-12.86,18.64-25.13a21.21,21.21,0,0,0-39.36-6.29,1.59,1.59,0,0,1-1.7.9H415.16c-.82,0-1.24-.14-1.53-1a21.21,21.21,0,0,0-40.05-.82A32.56,32.56,0,0,0,372.24,476.4Zm854.88,72.73v98.51c0,1.76-.21,1.56,1.51,1.56q33.78,0,67.55,0c5,0,10-.17,15.06-.63a111.19,111.19,0,0,0,21.73-3.91c11.46-3.41,21.74-8.79,29.67-18a47.75,47.75,0,0,0,10-18.32,67.4,67.4,0,0,0,2.12-19.69,49.28,49.28,0,0,0-2.33-14.22c-3.57-11.09-11-18.88-21-24.43a56.71,56.71,0,0,0-18.8-6.11c-.29-.05-.75.09-.8-.33s.49-.44.78-.53a55.15,55.15,0,0,0,19-10.39c6.42-5.47,11.08-12.09,13.22-20.35a55,55,0,0,0,1.25-19,41.37,41.37,0,0,0-2.27-10.75c-4.68-12.66-13.5-21.47-25.7-27-10.1-4.57-20.87-6.26-31.81-6.34-25.87-.2-51.75-.07-77.63-.06-1.81,0-1.57-.16-1.57,1.63ZM769.74,600.94c0,15.64,0,31.27,0,46.91,0,1.13.32,1.38,1.4,1.37,11.92,0,23.84,0,35.76,0,12.19-.06,24.38.15,36.57-.13a137.63,137.63,0,0,0,21.74-2.2c12.56-2.3,24.65-6,35.93-12.09a96.42,96.42,0,0,0,26-19.95,94.46,94.46,0,0,0,16.07-24.39c5.34-11.69,7.47-24.1,7.9-36.83.12-3.75.09-7.51-.11-11.26-.23-4.47-.6-8.91-1.26-13.33a86.48,86.48,0,0,0-11-31.81,87.38,87.38,0,0,0-20-23.67,99.47,99.47,0,0,0-37.22-18.85,147.64,147.64,0,0,0-37.89-5.43c-24.12-.12-48.23,0-72.35-.07-1.26,0-1.5.38-1.5,1.55,0,34.95.13,69.9-.07,104.86C769.67,570.7,769.74,585.82,769.74,600.94Zm251.46-51.7q0-49.36,0-98.74c0-1-.19-1.43-1.35-1.42q-16.56.06-33.11,0c-1,0-1.35.23-1.35,1.31q0,98.75,0,197.49c0,1.17.39,1.34,1.42,1.34q16.38,0,32.75,0c1.84,0,1.62.23,1.62-1.57Zm-334.83,16c.64,0,1.29,0,1.92,0a21.22,21.22,0,1,0-21.95-27.87c-.27.82-.55,1.21-1.52,1.2q-96.35,0-192.68,0c-.85,0-1.26-.2-1.5-1.06a19.12,19.12,0,0,0-5.19-8.48,21.25,21.25,0,0,0-36.1,16.79,21.21,21.21,0,0,0,41.14,5.34,1.8,1.8,0,0,1,2.07-1.51q96,0,192.09,0a1.54,1.54,0,0,1,1.74,1.27A20.78,20.78,0,0,0,686.37,565.26Zm756.27,16.1q0-33.24,0-66.46c0-1.11-.3-1.39-1.4-1.39q-15.52.06-31.07,0c-1.11,0-1.49.22-1.49,1.43,0,13,0,26.07,0,39.1-.11,31.31,0,62.62-.06,93.93,0,1,.31,1.25,1.28,1.25q15.72,0,31.43,0c1.16,0,1.35-.37,1.35-1.41Q1442.62,614.59,1442.64,581.36ZM628.23,627.92A21.18,21.18,0,1,0,608.12,600a1.52,1.52,0,0,1-1.74,1.25q-77.76,0-155.51,0a1.42,1.42,0,0,1-1.63-1.21A21.21,21.21,0,0,0,408,608.55c.81,10.64,10.36,20.49,22.91,19.27,9.12-.89,15.22-5.83,18.35-14.41a1.34,1.34,0,0,1,1.55-1q77.88,0,155.75,0a1.41,1.41,0,0,1,1.59,1.15A20.9,20.9,0,0,0,628.23,627.92Z" transform="translate(-372.22 -443.96)"/><path class="cls-2" d="M1115.28,654.24a29.56,29.56,0,0,0-5-.38,103.76,103.76,0,0,1-34.81-9,72.65,72.65,0,0,1-19.56-13c-1.79-1.66-3.37-3.5-5.09-5.23-.65-.65-.63-1.13.12-1.82,5.25-4.84,10.45-9.74,15.67-14.61,2.77-2.58,5.59-5.12,8.34-7.73.54-.51.78-.42,1.18.11,8.81,11.52,20.74,18,34.73,20.55,10,1.87,19.93.94,29.17-3.75a27.51,27.51,0,0,0,13.79-15,27,27,0,0,0,1.55-8.56,26.45,26.45,0,0,0-1.24-9.77c-1.63-4.85-5-8.43-8.9-11.47-6-4.56-12.83-7.22-19.84-9.6-9-3-18-5.73-26.85-9.11-6.54-2.5-12.94-5.28-18.62-9.49-10.89-8.08-18-18.54-20.18-32.08a68.11,68.11,0,0,1-.87-13c.23-8.27,1.73-16.26,5.72-23.61a56.38,56.38,0,0,1,20-21.16c9.49-5.94,19.91-9.25,30.87-11.09a97.84,97.84,0,0,1,22.08-1.15,94.56,94.56,0,0,1,31.72,7.61,76.19,76.19,0,0,1,20,12.74c1,.83.77,1.31.07,2.07-2.07,2.21-4.12,4.46-6.16,6.7q-7.27,8-14.53,15.91c-.5.56-1,1.46-1.57,1.54s-1-1-1.54-1.5a47.92,47.92,0,0,0-29.69-15.07c-9.94-1.27-19.54.18-28.29,5.38-6.35,3.78-10.64,9.16-12.09,16.6-2,10.3,2.31,19.87,11.34,25.4,6.16,3.77,12.93,6,19.75,8.16,10.62,3.33,21.24,6.69,31.43,11.22a62,62,0,0,1,20.56,14.23c7,7.59,11.47,16.42,12.58,26.83a71.15,71.15,0,0,1-2.57,29.34,55.73,55.73,0,0,1-10.52,18.95c-9.53,11.41-22,17.81-36.25,21.2a87.56,87.56,0,0,1-18.93,2.48.87.87,0,0,0-.68.17Z" transform="translate(-372.22 -443.96)"/><path class="cls-3" d="M372.24,476.4a32.56,32.56,0,0,1,1.34-6.16,21.21,21.21,0,0,1,40.05.82c.29.89.71,1,1.53,1H529.61a1.59,1.59,0,0,0,1.7-.9,21.21,21.21,0,0,1,39.36,6.29c2.33,12.27-6.45,24.11-18.64,25.13-10.52.88-19.3-4.94-22.52-15a21.57,21.57,0,0,1-.76-3.74c-.08-.61-.31-.75-.83-.71-.24,0-.48,0-.72,0q-55.85,0-111.69,0a1.73,1.73,0,0,0-2,1.41,21.19,21.19,0,0,1-35,8.06,20.39,20.39,0,0,1-6.09-13,3.87,3.87,0,0,0-.15-.56Z" transform="translate(-372.22 -443.96)"/><path class="cls-2" d="M1447.44,469.44a26.72,26.72,0,0,1-1.41,5.77,19.81,19.81,0,0,1-11.84,11.17c-6.52,2.38-13.14,2.41-19.37-.9-10.19-5.4-13.76-17-8.88-26.71,3.75-7.43,10.08-11.28,18.52-11.49a23.2,23.2,0,0,1,11.61,2.28c6.46,3.39,10.59,8.45,11.22,16a1.15,1.15,0,0,0,.15.32Z" transform="translate(-372.22 -443.96)"/><path class="cls-2" d="M1227.12,549.13V450.74c0-1.79-.24-1.63,1.57-1.63,25.88,0,51.76-.14,77.63.06,10.94.08,21.71,1.77,31.81,6.34,12.2,5.52,21,14.33,25.7,27a41.37,41.37,0,0,1,2.27,10.75,55,55,0,0,1-1.25,19c-2.14,8.26-6.8,14.88-13.22,20.35a55.15,55.15,0,0,1-19,10.39c-.29.09-.85,0-.78.53s.51.28.8.33a56.71,56.71,0,0,1,18.8,6.11c10,5.55,17.46,13.34,21,24.43a49.28,49.28,0,0,1,2.33,14.22,67.4,67.4,0,0,1-2.12,19.69,47.75,47.75,0,0,1-10,18.32c-7.93,9.23-18.21,14.61-29.67,18a111.19,111.19,0,0,1-21.73,3.91c-5,.46-10,.63-15.06.63q-33.78,0-67.55,0c-1.72,0-1.51.2-1.51-1.56ZM1262.88,590v7c0,7,0,13.91,0,20.87,0,.94.23,1.3,1.2,1.21s1.75,0,2.63,0c13.18-.25,26.38.57,39.55-.54a49.32,49.32,0,0,0,17.63-4.48c6.21-3,11.08-7.41,13.61-14,1.89-4.92,2-10,1.48-15.22-1-9.55-5.79-16.18-14.86-19.62a68.23,68.23,0,0,0-23.57-4c-12.12-.15-24.24,0-36.35-.06-1,0-1.33.24-1.33,1.31C1262.9,571.61,1262.88,580.8,1262.88,590Zm0-85.43q0,12.41,0,24.83c0,.68,0,1.21,1,1.19,12.5-.2,25,.41,37.5-.44a41.27,41.27,0,0,0,15-3.7c5.8-2.74,10.25-6.84,12.65-12.93a29.88,29.88,0,0,0,1.64-11.41c-.06-9.72-4.93-16.67-14-20a63,63,0,0,0-21.16-3.39c-10.44-.09-20.88,0-31.31-.05-1,0-1.28.26-1.27,1.26C1262.9,488.17,1262.88,496.37,1262.88,504.57Z" transform="translate(-372.22 -443.96)"/><path class="cls-2" d="M769.74,600.94c0-15.12-.07-30.24,0-45.35.2-35,0-69.91.07-104.86,0-1.17.24-1.55,1.5-1.55,24.12.05,48.23-.05,72.35.07a147.64,147.64,0,0,1,37.89,5.43,99.47,99.47,0,0,1,37.22,18.85,87.38,87.38,0,0,1,20,23.67,86.48,86.48,0,0,1,11,31.81c.66,4.42,1,8.86,1.26,13.33.2,3.75.23,7.51.11,11.26-.43,12.73-2.56,25.14-7.9,36.83a94.46,94.46,0,0,1-16.07,24.39,96.42,96.42,0,0,1-26,19.95c-11.28,6.09-23.37,9.79-35.93,12.09a137.63,137.63,0,0,1-21.74,2.2c-12.19.28-24.38.07-36.57.13-11.92,0-23.84,0-35.76,0-1.08,0-1.4-.24-1.4-1.37C769.76,632.21,769.74,616.58,769.74,600.94Zm35.76-52.13v6.12q0,30.78,0,61.56c0,1.15.2,1.58,1.48,1.55,4.12-.1,8.24,0,12.36,0,7.43-.11,14.86.21,22.29-.2a115.38,115.38,0,0,0,21.73-3.22c13-3.23,24.53-9.06,33.65-19.1a59,59,0,0,0,12.16-20.31c2.75-7.84,3.56-16,3.79-24.22.06-2-.05-4.05-.17-6.08-.16-2.75-.19-5.5-.51-8.24a63.32,63.32,0,0,0-7.39-24.33,57.75,57.75,0,0,0-11.7-14.93A62.83,62.83,0,0,0,867,483.61a125.1,125.1,0,0,0-30.64-3.82c-9.8-.12-19.6,0-29.4-.06-1.23,0-1.51.32-1.5,1.52Q805.53,515,805.5,548.81Z" transform="translate(-372.22 -443.96)"/><path class="cls-2" d="M1021.2,549.24v98.39c0,1.8.22,1.57-1.62,1.57q-16.37,0-32.75,0c-1,0-1.42-.17-1.42-1.34q0-98.74,0-197.49c0-1.08.31-1.31,1.35-1.31q16.54.06,33.11,0c1.16,0,1.35.38,1.35,1.42Q1021.19,499.87,1021.2,549.24Z" transform="translate(-372.22 -443.96)"/><path class="cls-4" d="M686.37,565.26a20.78,20.78,0,0,1-20-14.33,1.54,1.54,0,0,0-1.74-1.27q-96,0-192.09,0a1.8,1.8,0,0,0-2.07,1.51,21.2,21.2,0,1,1-23.26-28A21,21,0,0,1,465.45,529a19.12,19.12,0,0,1,5.19,8.48c.24.86.65,1.06,1.5,1.06q96.35,0,192.68,0c1,0,1.25-.38,1.52-1.2a21.2,21.2,0,1,1,21.95,27.87C687.66,565.3,687,565.26,686.37,565.26Z" transform="translate(-372.22 -443.96)"/><path class="cls-2" d="M1442.64,581.36q0,33.23,0,66.46c0,1-.19,1.41-1.35,1.41q-15.7-.08-31.43,0c-1,0-1.28-.23-1.28-1.25,0-31.31,0-62.62.06-93.93,0-13,0-26.07,0-39.1,0-1.21.38-1.43,1.49-1.43q15.54.06,31.07,0c1.1,0,1.4.28,1.4,1.39Q1442.61,548.13,1442.64,581.36Z" transform="translate(-372.22 -443.96)"/><path class="cls-3" d="M628.23,627.92a20.9,20.9,0,0,1-20.1-14.4,1.41,1.41,0,0,0-1.59-1.15q-77.88,0-155.75,0a1.34,1.34,0,0,0-1.55,1c-3.13,8.58-9.23,13.52-18.35,14.41-12.55,1.22-22.1-8.63-22.91-19.27A21.21,21.21,0,0,1,449.24,600a1.42,1.42,0,0,0,1.63,1.21q77.76,0,155.51,0a1.52,1.52,0,0,0,1.74-1.25,21.19,21.19,0,1,1,20.11,27.95Z" transform="translate(-372.22 -443.96)"/><path class="cls-1" d="M1262.88,590c0-9.2,0-18.39,0-27.59,0-1.07.28-1.32,1.33-1.31,12.11,0,24.23-.09,36.35.06a68.23,68.23,0,0,1,23.57,4c9.07,3.44,13.88,10.07,14.86,19.62.54,5.17.41,10.3-1.48,15.22-2.53,6.58-7.4,11-13.61,14a49.32,49.32,0,0,1-17.63,4.48c-13.17,1.11-26.37.29-39.55.54-.88,0-1.76-.06-2.63,0s-1.21-.27-1.2-1.21c0-7,0-13.91,0-20.87Z" transform="translate(-372.22 -443.96)"/><path class="cls-1" d="M1262.88,504.57c0-8.2,0-16.4,0-24.6,0-1,.28-1.26,1.27-1.26,10.43,0,20.87,0,31.31.05a63,63,0,0,1,21.16,3.39c9.11,3.29,14,10.24,14,20a29.88,29.88,0,0,1-1.64,11.41c-2.4,6.09-6.85,10.19-12.65,12.93a41.27,41.27,0,0,1-15,3.7c-12.49.85-25,.24-37.5.44-1,0-1-.51-1-1.19Q1262.89,517,1262.88,504.57Z" transform="translate(-372.22 -443.96)"/><path class="cls-1" d="M805.5,548.81q0-33.78,0-67.56c0-1.2.27-1.53,1.5-1.52,9.8,0,19.6-.06,29.4.06A125.1,125.1,0,0,1,867,483.61a62.83,62.83,0,0,1,26.15,13.75,57.75,57.75,0,0,1,11.7,14.93,63.32,63.32,0,0,1,7.39,24.33c.32,2.74.35,5.49.51,8.24.12,2,.23,4,.17,6.08-.23,8.23-1,16.38-3.79,24.22A59,59,0,0,1,897,595.47c-9.12,10-20.67,15.87-33.65,19.1a115.38,115.38,0,0,1-21.73,3.22c-7.43.41-14.86.09-22.29.2-4.12.06-8.24,0-12.36,0-1.28,0-1.48-.4-1.48-1.55q0-30.78,0-61.56Z" transform="translate(-372.22 -443.96)"/></svg>